<?xml version="1.0" encoding="UTF-8"?>
<svg width="51px" height="36px" viewBox="0 0 51 36" version="1.1" xmlns="http://www.w3.org/2000/svg" xmlns:xlink="http://www.w3.org/1999/xlink">
    <title>Orange_TV_Plus_19371</title>
    <g id="cablu" stroke="none" stroke-width="1" fill="none" fill-rule="evenodd">
        <g id="TV-cablu-desktop1" transform="translate(-75.000000, -1170.000000)" fill="#FF7900" fill-rule="nonzero">
            <g id="suna-sau-mergi-in-shop" transform="translate(0.000000, 1151.000000)">
                <g id="Orange_TV_Plus_19371" transform="translate(75.000000, 19.000000)">
                    <path d="M49.42464,16.42464 C48.817124,17.0330406 48.1371485,17.564483 47.4,18.00702 L47.4,27.6 L3.6,27.6 L3.6,3.6 L32.99298,3.6 C33.880021,2.12494795 35.1141773,0.889082039 36.588,0 L0,0 L0,31.2 L9,31.2 L9,36 L42,36 L42,31.2 L51,31.2 L51,14.412 C50.5588176,15.1445422 50.0297773,15.8204307 49.42464,16.42464 Z M26,34 C24.8954305,34 24,33.1045695 24,32 C24,30.8954305 24.8954305,30 26,30 C27.1045695,30 28,30.8954305 28,32 C28,33.1045695 27.1045695,34 26,34 L26,34 Z M42,0 C37.0294373,0 33,4.02943725 33,9 C33,13.9705627 37.0294373,18 42,18 C46.9705627,18 51,13.9705627 51,9 C51,6.61305159 50.0517884,4.32386638 48.363961,2.63603897 C46.6761336,0.948211563 44.3869484,0 42,0 Z M48,10.2 L43.2,10.2 L43.2,15 L40.8,15 L40.8,10.2 L36,10.2 L36,7.8 L40.8,7.8 L40.8,3 L43.2,3 L43.2,7.8 L48,7.8 L48,10.2 Z" id="Shape"></path>
                </g>
            </g>
        </g>
    </g>
</svg>